<svg xmlns="http://www.w3.org/2000/svg" width="109" height="26" fill="none"><g clip-path="url(#a)"><path fill="#FCFCFC" fill-rule="evenodd" d="M2.815 14.89a1.354 1.354 0 0 0-1.325 1.354v3.481c0 .012.01.021.02.021h.009a.03.03 0 0 1 .014.004l7.774 4.477a2.03 2.03 0 0 0 2.084-.034l3.086-1.913a.27.27 0 0 0 .128-.23v-5.337a2.031 2.031 0 0 0-2.074-2.03l-9.716.207Z" clip-rule="evenodd"/><mask id="b" width="17" height="14" x="0" y="13" maskUnits="userSpaceOnUse" style="mask-type:luminance"><path fill="#fff" d="M16.115 13.193H0v12.864h16.115V13.193Z"/><path fill="#000" fill-rule="evenodd" d="M2.815 14.89a1.354 1.354 0 0 0-1.325 1.354v3.481c0 .012.01.021.02.021h.009a.03.03 0 0 1 .014.004l7.774 4.477a2.03 2.03 0 0 0 2.084-.034l3.086-1.913a.27.27 0 0 0 .128-.23v-5.337a2.031 2.031 0 0 0-2.074-2.03l-9.716.207Z" clip-rule="evenodd"/></mask><g mask="url(#b)"><path fill="#333" d="M2.98 16.244a.135.135 0 0 1-.133.135l-.064-2.978A2.844 2.844 0 0 0 0 16.244h2.98Zm0 3.481v-3.481H0v3.481h2.98Zm-1.461-1.468H1.51v2.979h.008v-2.98Zm8.532 4.68-7.775-4.478L.79 21.041l7.774 4.477 1.487-2.581Zm3.642-1.923-3.087 1.913 1.57 2.532 3.086-1.913-1.57-2.532Zm-.577 1.036c0-.422.218-.814.577-1.036l1.57 2.532a1.76 1.76 0 0 0 .832-1.496h-2.979Zm0-2.304v2.304h2.98v-2.304h-2.98Zm0-3.033v3.033h2.98v-3.033h-2.98Zm-10.27-.334 9.717-.207-.064-2.979-9.716.208.064 2.978Zm5.718 9.14a3.521 3.521 0 0 0 3.612-.06l-1.57-2.532a.542.542 0 0 1-.555.01l-1.487 2.581Zm7.531-8.806a3.52 3.52 0 0 0-3.596-3.52l.064 2.979a.542.542 0 0 1 .553.541h2.98ZM1.52 21.236a1.46 1.46 0 0 1-.73-.195l1.487-2.582a1.52 1.52 0 0 0-.757-.202v2.979ZM0 19.726c0 .834.676 1.51 1.51 1.51v-2.98c.812 0 1.47.658 1.47 1.47H0Z"/></g><path fill="#FCFCFC" fill-rule="evenodd" d="m17.943 10.54-7.584-.383-7.584.383a1.354 1.354 0 0 0-1.285 1.353v3.351a.02.02 0 0 0 .02.021h.009c.005 0 .01.001.014.004l7.813 4.5c.627.36 1.4.36 2.027 0l7.813-4.5a.028.028 0 0 1 .014-.004h.008c.012 0 .021-.01.021-.021v-3.351c0-.722-.565-1.317-1.286-1.353Z" clip-rule="evenodd"/><mask id="c" width="21" height="14" x="0" y="8" maskUnits="userSpaceOnUse" style="mask-type:luminance"><path fill="#fff" d="M20.719 8.532H0v13h20.719v-13Z"/><path fill="#000" fill-rule="evenodd" d="m17.943 10.54-7.584-.383-7.584.383a1.354 1.354 0 0 0-1.285 1.353v3.351a.02.02 0 0 0 .02.021h.009c.005 0 .01.001.014.004l7.813 4.5c.627.36 1.4.36 2.027 0l7.813-4.5a.028.028 0 0 1 .014-.004h.008c.012 0 .021-.01.021-.021v-3.351c0-.722-.565-1.317-1.286-1.353Z" clip-rule="evenodd"/></mask><g mask="url(#c)"><path fill="#333" d="m10.36 10.157.075-1.488-.076-.004-.075.004.075 1.488Zm-.076 1.488 7.584.383.15-2.976-7.584-.383-.15 2.976Zm-7.433.383 7.583-.383-.15-2.976-7.584.383.15 2.976Zm.128-.136a.135.135 0 0 1-.128.136L2.7 9.052a2.844 2.844 0 0 0-2.7 2.84h2.98Zm0 3.352v-3.351H0v3.351h2.98Zm-1.46-1.469H1.51v2.98h.008v-2.98Zm8.57 4.702-7.813-4.499L.79 16.56l7.812 4.5 1.487-2.582Zm8.353-4.499-7.812 4.5 1.486 2.581 7.813-4.5-1.487-2.58Zm.766-.203H19.2v2.98h.008v-2.98Zm-1.468-1.883v3.352h2.979v-3.351h-2.98Zm.128.136a.136.136 0 0 1-.128-.136h2.979a2.844 2.844 0 0 0-2.7-2.84l-.15 2.976Zm1.34 4.727a1.51 1.51 0 0 0 1.51-1.511H17.74c0-.811.657-1.469 1.468-1.469v2.98Zm.721-.195a1.46 1.46 0 0 1-.729.195v-2.98c-.266 0-.527.07-.758.203l1.487 2.582Zm-11.327 4.5a3.52 3.52 0 0 0 3.514 0l-1.486-2.582a.542.542 0 0 1-.54 0l-1.488 2.581ZM1.52 16.754a1.46 1.46 0 0 1-.73-.195l1.487-2.582a1.518 1.518 0 0 0-.757-.203v2.98ZM0 15.244c0 .834.676 1.51 1.51 1.51v-2.979c.812 0 1.47.658 1.47 1.469H0Z"/></g><path fill="#FCFCFC" fill-rule="evenodd" d="m17.91 5.866-7.55-.19-7.55.19c-.735.019-1.32.62-1.32 1.354v3.542c0 .012.01.022.02.022h.009a.03.03 0 0 1 .014.003l7.813 4.5c.627.361 1.4.361 2.027 0l7.813-4.5a.03.03 0 0 1 .014-.003h.008c.012 0 .021-.01.021-.022V7.22c0-.735-.585-1.335-1.32-1.354Z" clip-rule="evenodd"/><mask id="d" width="21" height="14" x="0" y="4" maskUnits="userSpaceOnUse" style="mask-type:luminance"><path fill="#fff" d="M20.719 4.05H0v13h20.719v-13Z"/><path fill="#000" fill-rule="evenodd" d="m17.91 5.866-7.55-.19-7.55.19c-.735.019-1.32.62-1.32 1.354v3.542c0 .012.01.022.02.022h.009a.03.03 0 0 1 .014.003l7.813 4.5c.627.361 1.4.361 2.027 0l7.813-4.5a.03.03 0 0 1 .014-.003h.008c.012 0 .021-.01.021-.022V7.22c0-.735-.585-1.335-1.32-1.354Z" clip-rule="evenodd"/></mask><g mask="url(#d)"><path fill="#333" d="m10.36 5.676.037-1.49h-.075l.037 1.49Zm-.038 1.489 7.55.19.075-2.978-7.55-.19-.075 2.978Zm-7.475.19 7.55-.19-.075-2.979-7.55.191.075 2.978Zm.132-.135a.135.135 0 0 1-.132.135l-.075-2.978A2.844 2.844 0 0 0 0 7.22h2.98Zm0 3.542V7.22H0v3.542h2.98ZM1.52 9.294h-.01v2.98h.008v-2.98Zm8.57 4.702-7.813-4.5L.79 12.079l7.812 4.5 1.487-2.582Zm8.353-4.5-7.812 4.5 1.486 2.582 7.813-4.5-1.487-2.581Zm.766-.202H19.2v2.98h.008v-2.98ZM17.74 7.22v3.542h2.979V7.22h-2.98Zm.132.135a.135.135 0 0 1-.132-.135h2.979a2.844 2.844 0 0 0-2.772-2.843l-.075 2.978Zm1.336 4.918a1.51 1.51 0 0 0 1.51-1.51H17.74c0-.812.657-1.469 1.468-1.469v2.98Zm.721-.195a1.46 1.46 0 0 1-.729.195V9.294c-.266 0-.527.07-.758.203l1.487 2.581Zm-11.327 4.5a3.521 3.521 0 0 0 3.514 0l-1.486-2.582a.541.541 0 0 1-.54 0l-1.488 2.582ZM1.52 12.273a1.46 1.46 0 0 1-.73-.195l1.487-2.581a1.519 1.519 0 0 0-.757-.203v2.98ZM0 10.763c0 .834.676 1.51 1.51 1.51V9.294c.812 0 1.47.658 1.47 1.468H0Z"/></g><path fill="#FCFCFC" fill-rule="evenodd" d="M19.195 6.281a.01.01 0 0 1-.005-.001l-7.817-4.502a2.031 2.031 0 0 0-2.027 0L1.529 6.28a.01.01 0 0 1-.005.001h-.02c-.004 0-.005.005-.002.007a.004.004 0 0 1 0 .007c-.003.002-.002.007.002.007h.02a.01.01 0 0 1 .004.002l7.818 4.501c.627.362 1.4.362 2.027 0l7.817-4.502a.01.01 0 0 1 .005 0h.02c.004 0 .005-.006.002-.008a.004.004 0 0 1 0-.007c.003-.002.002-.007-.002-.007h-.02Z" clip-rule="evenodd"/><mask id="e" width="22" height="13" x="-1" y="0" maskUnits="userSpaceOnUse" style="mask-type:luminance"><path fill="#fff" d="M20.73.017H-.126v12.594H20.73V.017Z"/><path fill="#000" fill-rule="evenodd" d="M19.195 6.281a.01.01 0 0 1-.005-.001l-7.817-4.502a2.031 2.031 0 0 0-2.027 0L1.529 6.28a.01.01 0 0 1-.005.001h-.02c-.004 0-.005.005-.002.007a.004.004 0 0 1 0 .007c-.003.002-.002.007.002.007h.02a.01.01 0 0 1 .004.002l7.818 4.501c.627.362 1.4.362 2.027 0l7.817-4.502a.01.01 0 0 1 .005 0h.02c.004 0 .005-.006.002-.008a.004.004 0 0 1 0-.007c.003-.002.002-.007-.002-.007h-.02Z" clip-rule="evenodd"/></mask><g mask="url(#e)"><path fill="#333" d="m10.63 3.069 7.817 4.502 1.487-2.582L12.116.487 10.63 3.07ZM2.272 7.57l7.817-4.502L8.602.487.785 4.99l1.487 2.582Zm-.768.2h.02V4.79h-.02v2.98Zm.02-2.958h-.02v2.979h.02v-2.98Zm8.565 4.702L2.272 5.013.785 7.594l7.817 4.502 1.487-2.581Zm8.358-4.502L10.63 9.515l1.486 2.581 7.818-4.502-1.487-2.581Zm.768-.2h-.02v2.979h.02v-2.98Zm-.02 2.958h.02V4.79h-.02v2.98Zm.765-.192c1.325-.763.784-2.787-.745-2.787V7.77c-1.521 0-2.06-2.015-.742-2.774L19.96 7.58Zm0-2.575a1.486 1.486 0 0 1 0 2.575l-1.487-2.582a1.493 1.493 0 0 0 0 2.589l1.487-2.582Zm-.745 2.788c1.529 0 2.07-2.025.745-2.788l-1.487 2.582c-1.318-.759-.78-2.773.742-2.773v2.979Zm.719-.198a1.48 1.48 0 0 1-.74.198v-2.98c-.262 0-.52.07-.747.2l1.487 2.582ZM8.602 12.096a3.52 3.52 0 0 0 3.514 0L10.63 9.515a.542.542 0 0 1-.54 0l-1.488 2.581ZM1.524 7.792a1.48 1.48 0 0 1-.739-.198l1.487-2.581a1.499 1.499 0 0 0-.748-.2v2.979ZM.759 5.004c-1.325.763-.784 2.788.745 2.788v-2.98c1.521 0 2.06 2.015.742 2.774L.759 5.004Zm0 2.575a1.486 1.486 0 0 1 0-2.575l1.487 2.582a1.493 1.493 0 0 0 0-2.588L.759 7.579Zm.745-2.787c-1.53 0-2.07 2.024-.745 2.787l1.487-2.581c1.317.758.78 2.773-.742 2.773V4.79Zm-.719.197c.225-.13.48-.197.739-.197V7.77c.262 0 .52-.07.748-.2L.785 4.989Zm17.662 2.582c.227.13.485.2.748.2V4.79c.26 0 .514.069.739.198L18.447 7.57ZM12.117.487a3.52 3.52 0 0 0-3.515 0L10.09 3.07a.542.542 0 0 1 .54 0L12.118.487Z"/></g><path stroke="#333" stroke-width=".135" d="M.068 6.365v13.27m20.583-13.27v8.666"/><path fill="#000" d="M35.944 12.397V8.883h3.21c1.36 0 1.95.732 1.95 1.768s-.59 1.746-1.95 1.746h-3.21Zm0 2.722h3.21c3.351 0 4.915-1.95 4.915-4.469 0-2.518-1.442-4.489-4.916-4.489h-6.175v14.422h2.966V15.12Zm14.8.67v.427c0 1.402-.893 2.377-2.58 2.377-1.157 0-1.604-.386-1.604-1.117 0-.59.386-1.036 1.625-1.26l2.56-.426Zm-3.23 5.038c1.626 0 2.702-.467 3.373-1.422 0 .69.101 1.178.121 1.178h2.783c-.182-.426-.304-1.218-.304-1.909v-5.017c0-2.478-1.544-3.961-4.672-3.961-3.372 0-4.631 1.828-4.794 3.676h2.844c.101-.73.63-1.3 1.97-1.3 1.26 0 1.91.529 1.91 1.565v.101l-2.844.427c-2.844.447-4.124 1.543-4.124 3.392 0 1.91 1.28 3.27 3.738 3.27ZM61.473 9.858s-.244-.02-.345-.02c-1.808 0-2.62.853-3.007 1.483V9.94h-2.66v10.643h2.884v-5.301c0-1.95.873-2.783 2.56-2.783.263 0 .568.06.568.06v-2.7Zm7.156 5.932v.426c0 1.402-.894 2.377-2.58 2.377-1.157 0-1.604-.386-1.604-1.117 0-.59.386-1.036 1.625-1.26l2.56-.426Zm-3.23 5.037c1.626 0 2.702-.467 3.372-1.422 0 .69.102 1.178.122 1.178h2.783c-.183-.426-.305-1.218-.305-1.909v-5.017c0-2.478-1.543-3.961-4.672-3.961-3.371 0-4.63 1.828-4.793 3.676h2.844c.101-.73.63-1.3 1.97-1.3 1.26 0 1.91.529 1.91 1.565v.101l-2.845.427c-2.843.447-4.123 1.543-4.123 3.392 0 1.91 1.28 3.27 3.737 3.27Zm15.46-9.587c-.67-.975-1.827-1.544-3.33-1.544-2.966 0-4.855 2.376-4.855 5.342 0 2.966 1.889 5.342 4.855 5.342 1.503 0 2.559-.65 3.107-1.381v1.483c0 1.26-.751 2.072-2.214 2.072-1.442 0-1.93-.792-2.051-1.402h-2.885c.163 1.686 1.605 3.88 4.896 3.88 3.25 0 5.139-2.072 5.139-4.855V9.94H80.86v1.3Zm-.141 3.798c0 1.666-1.036 2.803-2.58 2.803s-2.58-1.137-2.58-2.803 1.036-2.803 2.58-2.803 2.58 1.137 2.58 2.803Zm9.648 5.79c3.412 0 5.586-2.54 5.586-5.566 0-3.027-2.174-5.566-5.586-5.566-3.413 0-5.586 2.539-5.586 5.566 0 3.026 2.173 5.565 5.586 5.565Zm-2.702-5.566c0-1.91 1.178-3.027 2.702-3.027 1.523 0 2.701 1.117 2.701 3.027 0 1.909-1.178 3.026-2.701 3.026-1.524 0-2.702-1.117-2.702-3.027ZM99.978 9.94h-2.661v10.643h2.884V14.49c0-1.422.772-2.316 2.173-2.316 1.28 0 1.808.853 1.808 2.092v6.317h2.885v-6.642c0-2.539-1.361-4.245-3.921-4.245-1.584 0-2.681.63-3.168 1.544v-1.3Z"/></g><defs><clipPath id="a"><path fill="#fff" d="M0 0h108.333v26H0z"/></clipPath></defs></svg>