<svg xmlns="http://www.w3.org/2000/svg" xmlns:xlink="http://www.w3.org/1999/xlink" width="410.88" height="467.2" viewBox="113.688 85.528 414.88 471.2"><defs><path id="a" d="M470.27 173.57c-1.66-.13-37.63-2.82-37.63-2.82s-24.96-24.7-27.65-27.52c-2.69-2.69-8.06-1.92-10.11-1.28-.26.13-5.5 1.67-13.95 4.35-8.32-23.93-23.04-45.95-48.9-45.95-.77 0-1.41 0-2.17.13-7.3-9.73-16.52-13.95-24.32-13.95-60.29 0-89.09 75.26-98.05 113.66-23.43 7.3-40.07 12.42-42.11 13.06-13.06 4.09-13.44 4.48-15.24 16.77-1.28 9.34-35.45 273.79-35.45 273.79 17.76 3.33 106.6 19.97 266.49 49.92 86.63-18.74 134.76-29.15 144.39-31.23-.13-.13-50.82-342.79-51.2-345.09-.39-2.31-2.43-3.59-4.1-3.84zm-126.59-15.75v-4.86c0-14.85-2.05-26.88-5.38-36.35 13.32 1.66 22.15 16.77 27.91 34.17-6.66 2.05-14.34 4.48-22.53 7.04zm-15.74 2.31v2.56c-14.72 4.48-30.6 9.47-46.6 14.46 8.96-34.69 25.73-51.33 40.45-57.6 3.71 9.35 6.15 22.66 6.15 40.58zm-16.39-55.04c-19.33 9.09-40.06 32-48.77 77.69-12.8 3.97-25.21 7.81-36.86 11.4 10.37-34.82 34.69-91.65 77.95-91.65 2.56 0 5.25.89 7.68 2.56z"/><path id="b" d="M470.27 173.57c-1.66-.13-37.63-2.82-37.63-2.82s-24.96-24.7-27.65-27.52c-1.02-1.02-2.43-1.53-3.84-1.79-1.34 27.47-8.04 164.81-20.09 412.03 86.63-18.74 134.75-29.15 144.38-31.23 0 0-50.69-342.66-50.94-344.96-.39-2.3-2.44-3.58-4.23-3.71"/><path id="c" d="M332.03 253.31c-10.67 31.8-16.6 49.46-17.79 52.99 0 0-15.62-8.32-34.69-8.32-28.03 0-29.44 17.54-29.44 22.02 0 24.19 63.11 33.41 63.11 90.11 0 44.55-28.29 73.22-66.44 73.22-45.69 0-69.12-28.42-69.12-28.42 1.23-4.04 11.06-36.4 12.29-40.45 0 0 24.07 20.61 44.29 20.61 13.31 0 18.69-10.49 18.69-18.05 0-31.48-51.71-32.89-51.71-84.73 0-43.65 31.36-85.89 94.59-85.89 24.19 0 36.22 6.91 36.22 6.91"/></defs><use xlink:href="#a" fill="#95bf46"/><use xlink:href="#a" fill-opacity="0" stroke="#000" stroke-opacity="0"/><use xlink:href="#b" fill="#5e8e3e"/><use xlink:href="#b" fill-opacity="0" stroke="#000" stroke-opacity="0"/><use xlink:href="#c" fill="#fff"/><use xlink:href="#c" fill-opacity="0" stroke="#000" stroke-opacity="0"/></svg>